<svg width="319" height="118" viewBox="0 0 319 118" fill="none" xmlns="http://www.w3.org/2000/svg">
<path d="M82 5H5V32H82V59H5" stroke="black" stroke-width="10" stroke-linecap="square"/>
<path d="M236 5H314V32H236V59H314" stroke="black" stroke-width="10" stroke-linecap="square"/>
<path d="M121 59H198V5H121V59Z" stroke="black" stroke-width="10"/>
<path d="M32.2793 93V77.8242H34.6816L39.584 86.5938L41.3027 89.7188H41.4199C41.2376 88.3516 41.1465 86.8997 41.1465 85.3633V77.8242H43.3926V93H40.9902L36.0684 84.3086L34.3496 81.1445H34.252C34.4212 82.4987 34.5059 83.9505 34.5059 85.5V93H32.2793ZM98.1973 87.2773C98.1973 88.4622 98.4316 89.3932 98.9004 90.0703C99.3822 90.7474 100.02 91.0859 100.814 91.0859C101.609 91.0859 102.24 90.7604 102.709 90.1094C103.178 89.4453 103.412 88.5013 103.412 87.2773C103.412 86.0794 103.171 85.1484 102.689 84.4844C102.221 83.8073 101.609 83.4688 100.854 83.4688C100.046 83.4688 99.4017 83.8203 98.9199 84.5234C98.4382 85.2135 98.1973 86.1315 98.1973 87.2773ZM96.0098 87.2969C96.0098 85.5781 96.4329 84.2044 97.2793 83.1758C98.1387 82.1471 99.2324 81.6328 100.561 81.6328C101.29 81.6328 101.895 81.8216 102.377 82.1992C102.872 82.5638 103.223 82.974 103.432 83.4297V81.9844H105.561V91.5547C105.561 93.638 105.163 95.1745 104.369 96.1641C103.588 97.1667 102.364 97.668 100.697 97.668C98.8613 97.668 97.4486 96.9779 96.459 95.5977L97.9043 94.6016C98.6986 95.5 99.6491 95.9492 100.756 95.9492C101.537 95.9492 102.169 95.6432 102.65 95.0312C103.132 94.4193 103.386 93.6185 103.412 92.6289C103.412 92.4727 103.412 92.2383 103.412 91.9258C103.425 91.6133 103.432 91.3984 103.432 91.2812C103.171 91.763 102.794 92.1602 102.299 92.4727C101.804 92.7721 101.251 92.9219 100.639 92.9219C99.2454 92.9219 98.1257 92.4076 97.2793 91.3789C96.4329 90.3372 96.0098 88.9766 96.0098 87.2969ZM158.529 80.0703V77.6094H160.932V80.0703H158.529ZM158.686 93V81.9844H160.814V93H158.686ZM213.92 93V81.9844H216.01V83.5273H216.029C216.199 83.0846 216.563 82.6615 217.123 82.2578C217.696 81.8411 218.399 81.6328 219.232 81.6328C220.3 81.6328 221.16 81.9648 221.811 82.6289C222.462 83.293 222.787 84.3867 222.787 85.9102V93H220.639V86.2031C220.639 84.3802 220.007 83.4688 218.744 83.4688C218.002 83.4688 217.37 83.7747 216.85 84.3867C216.342 84.9857 216.088 85.7148 216.088 86.5742V93H213.92ZM274.096 93L278.998 85.207L274.33 77.8242H277.006L278.979 81.2422C279.122 81.5026 279.337 81.8867 279.623 82.3945C279.923 82.8893 280.144 83.2669 280.287 83.5273H280.365C280.508 83.2669 280.73 82.8828 281.029 82.375C281.329 81.8672 281.544 81.4896 281.674 81.2422L283.646 77.8242H286.322L281.654 85.207L286.576 93H283.939L281.771 89.3672C281.602 89.0938 281.355 88.6706 281.029 88.0977C280.704 87.5247 280.482 87.1406 280.365 86.9453H280.287C279.949 87.5443 279.48 88.3516 278.881 89.3672L276.732 93H274.096Z" fill="black"/>
</svg>
